<svg width="80" height="80" viewBox="0 0 80 80" fill="none" xmlns="http://www.w3.org/2000/svg">
<g clip-path="url(#clip0)">
<path d="M52.8357 0H11.3756C10.2214 0 9.28564 0.935714 9.28564 2.75143V78.5714C9.28564 79.0643 10.2214 80 11.3756 80H68.6242C69.7785 80 70.7142 79.0643 70.7142 78.5714V18.54C70.7142 17.5457 70.5814 17.2257 70.3471 16.99L53.7242 0.367143C53.4885 0.132857 53.1685 0 52.8357 0Z" fill="#E9E9E0"/>
<path d="M53.5713 0.215698V17.1428H70.4984L53.5713 0.215698Z" fill="#D9D7CA"/>
<path d="M68.6242 80.0001H11.3756C10.2214 80.0001 9.28564 79.0643 9.28564 77.9101V55.7144H70.7142V77.9101C70.7142 79.0643 69.7785 80.0001 68.6242 80.0001Z" fill="#7023F0"/>
<path d="M24.3154 61.0271V72.2385C24.3154 72.9156 24.1911 73.4856 23.944 73.9471C23.6968 74.4085 23.3654 74.7799 22.9483 75.0599C22.5311 75.3399 22.0526 75.5356 21.5126 75.6456C20.9726 75.7556 20.4154 75.8114 19.8426 75.8114C19.5568 75.8114 19.2197 75.7814 18.8368 75.7228C18.454 75.6642 18.0554 75.5742 17.6454 75.4499C17.2354 75.3256 16.8411 75.1856 16.464 75.0299C16.0868 74.8742 15.7683 74.6985 15.5068 74.5028L16.5026 72.9214C16.6326 73.0114 16.8183 73.1071 17.0597 73.2042C17.3011 73.3014 17.5654 73.3928 17.8511 73.4771C18.1368 73.5614 18.4368 73.6356 18.7497 73.7014C19.0626 73.7671 19.3554 73.7985 19.6283 73.7985C20.3183 73.7985 20.8683 73.6642 21.2783 73.3985C21.6883 73.1328 21.9054 72.6785 21.9326 72.0414V61.0256H24.3154V61.0271Z" fill="white"/>
<path d="M35.9771 71.7685C35.9771 72.2885 35.87 72.7943 35.6543 73.2828C35.4386 73.7714 35.1371 74.2014 34.7457 74.5714C34.3543 74.9414 33.8743 75.2385 33.3 75.46C32.7257 75.6814 32.0771 75.7914 31.3471 75.7914C31.0343 75.7914 30.7129 75.7742 30.38 75.7428C30.0472 75.7114 29.7129 75.6542 29.3743 75.5771C29.0357 75.4985 28.7129 75.3914 28.4072 75.2542C28.1014 75.1171 27.8386 74.9514 27.6157 74.7557L28.0257 73.0757C28.2086 73.18 28.4386 73.2814 28.7186 73.3785C28.9986 73.4757 29.2872 73.5671 29.5872 73.6514C29.8872 73.7357 30.1857 73.8042 30.4857 73.8571C30.7857 73.91 31.0643 73.9357 31.3257 73.9357C32.12 73.9357 32.7286 73.75 33.1514 73.3785C33.5743 73.0071 33.7857 72.4571 33.7857 71.7285C33.7857 71.2857 33.6371 70.9085 33.3371 70.5957C33.0371 70.2828 32.6629 70 32.2143 69.7457C31.7657 69.4914 31.28 69.2385 30.7586 68.9843C30.2371 68.73 29.75 68.43 29.2943 68.0857C28.8386 67.7414 28.4614 67.3343 28.1614 66.8657C27.8614 66.3971 27.7129 65.8114 27.7129 65.1085C27.7129 64.4714 27.83 63.9043 28.0643 63.41C28.2986 62.9157 28.6143 62.4943 29.0114 62.15C29.4086 61.8057 29.8714 61.5414 30.3986 61.3586C30.9257 61.1757 31.4829 61.0857 32.0686 61.0857C32.6671 61.0857 33.2729 61.1414 33.8843 61.2514C34.4957 61.3614 34.99 61.5414 35.3686 61.7886C35.29 61.9571 35.2 62.1428 35.0957 62.3457C34.9914 62.5485 34.8929 62.7357 34.8029 62.9114C34.7129 63.0871 34.6343 63.2343 34.5686 63.3514C34.5029 63.4686 34.4643 63.5343 34.4514 63.5471C34.3729 63.5086 34.2857 63.4571 34.1871 63.3914C34.0886 63.3257 33.95 63.2614 33.7671 63.1957C33.5843 63.13 33.3443 63.0857 33.0443 63.0585C32.7443 63.0314 32.36 63.0385 31.8914 63.0785C31.63 63.1057 31.3843 63.1786 31.1486 63.3028C30.9129 63.4271 30.7057 63.5785 30.5229 63.7614C30.34 63.9443 30.1972 64.1485 30.0929 64.3771C29.9886 64.6057 29.9371 64.8243 29.9371 65.0314C29.9371 65.5514 30.0857 65.9714 30.3857 66.2914C30.6857 66.6114 31.0571 66.89 31.4986 67.1314C31.94 67.3728 32.4229 67.6071 32.9443 67.8343C33.4657 68.0614 33.95 68.34 34.4 68.6643C34.85 68.9885 35.2229 69.3971 35.5229 69.8843C35.8229 70.3714 35.9771 71 35.9771 71.7685Z" fill="white"/>
<path d="M50.1169 68.4486C50.1169 69.66 49.9641 70.7271 49.6584 71.6514C49.3526 72.5757 48.9284 73.3443 48.3884 73.9557C47.8484 74.5671 47.2169 75.03 46.4941 75.3428C45.7712 75.6557 44.9798 75.8114 44.1212 75.8114C43.2626 75.8114 42.4712 75.6557 41.7483 75.3428C41.0255 75.03 40.3941 74.5685 39.8541 73.9557C39.3141 73.3428 38.8898 72.5757 38.5841 71.6514C38.2783 70.7271 38.1255 69.6585 38.1255 68.4486C38.1255 67.2386 38.2783 66.1728 38.5841 65.2557C38.8898 64.3386 39.3141 63.5728 39.8541 62.9614C40.3941 62.35 41.0255 61.8843 41.7483 61.5643C42.4712 61.2443 43.2626 61.0857 44.1212 61.0857C44.9798 61.0857 45.7712 61.2443 46.4941 61.5643C47.2169 61.8843 47.8484 62.3486 48.3884 62.9614C48.9284 63.5743 49.3526 64.3386 49.6584 65.2557C49.9641 66.1728 50.1169 67.2371 50.1169 68.4486ZM44.0626 73.8985C44.5441 73.8985 45.0026 73.8043 45.4398 73.6157C45.8769 73.4271 46.2669 73.1171 46.6112 72.6885C46.9555 72.26 47.2269 71.6957 47.4212 70.9985C47.6155 70.3014 47.7212 69.4528 47.7341 68.45C47.7212 67.4728 47.6198 66.6428 47.4312 65.96C47.2426 65.2771 46.9826 64.7128 46.6498 64.27C46.3169 63.8271 45.9398 63.5086 45.5169 63.3128C45.0941 63.1171 44.6483 63.02 44.1783 63.02C43.6969 63.02 43.2383 63.11 42.8012 63.2928C42.3641 63.4757 41.9741 63.7843 41.6298 64.22C41.2855 64.6557 41.0141 65.2186 40.8198 65.91C40.6241 66.6 40.5198 67.4457 40.5069 68.4486C40.5198 69.4257 40.6212 70.2585 40.8098 70.9485C40.9983 71.6385 41.2583 72.2014 41.5912 72.6385C41.9241 73.0757 42.3012 73.3928 42.7241 73.5957C43.1469 73.7985 43.5941 73.8985 44.0626 73.8985Z" fill="white"/>
<path d="M63.828 61.3198V75.7141H61.4451L55.8008 65.7927V75.7141H53.418V61.3198H55.8008L61.4451 71.2413V61.3198H63.828Z" fill="white"/>
<path d="M27.8567 27.1428V21.4285C27.8567 20.6414 28.4967 20 29.2853 20C30.0753 20 30.7139 19.36 30.7139 18.5714C30.7139 17.7828 30.0753 17.1428 29.2853 17.1428C26.9224 17.1428 24.9996 19.0657 24.9996 21.4285V27.1428C24.9996 28.7185 23.7182 30 22.1424 30C21.3524 30 20.7139 30.64 20.7139 31.4285C20.7139 32.2171 21.3524 32.8571 22.1424 32.8571C23.7182 32.8571 24.9996 34.1385 24.9996 35.7143V41.4285C24.9996 43.7914 26.9224 45.7142 29.2853 45.7142C30.0753 45.7142 30.7139 45.0742 30.7139 44.2857C30.7139 43.4971 30.0753 42.8571 29.2853 42.8571C28.4967 42.8571 27.8567 42.2157 27.8567 41.4285V35.7143C27.8567 34 27.0824 32.4771 25.8824 31.4285C27.0824 30.38 27.8567 28.8571 27.8567 27.1428Z" fill="#7023F0"/>
<path d="M39.2849 28.5714C40.4684 28.5714 41.4278 27.612 41.4278 26.4285C41.4278 25.245 40.4684 24.2856 39.2849 24.2856C38.1015 24.2856 37.1421 25.245 37.1421 26.4285C37.1421 27.612 38.1015 28.5714 39.2849 28.5714Z" fill="#7023F0"/>
<path d="M56.4279 30C54.8522 30 53.5707 28.7185 53.5707 27.1428V21.4285C53.5707 19.0657 51.6479 17.1428 49.285 17.1428C48.495 17.1428 47.8564 17.7828 47.8564 18.5714C47.8564 19.36 48.495 20 49.285 20C50.0736 20 50.7136 20.6414 50.7136 21.4285V27.1428C50.7136 28.8571 51.4879 30.38 52.6879 31.4285C51.4879 32.4771 50.7136 34 50.7136 35.7143V41.4285C50.7136 42.2157 50.0736 42.8571 49.285 42.8571C48.495 42.8571 47.8564 43.4971 47.8564 44.2857C47.8564 45.0742 48.495 45.7142 49.285 45.7142C51.6479 45.7142 53.5707 43.7914 53.5707 41.4285V35.7143C53.5707 34.1385 54.8522 32.8571 56.4279 32.8571C57.2179 32.8571 57.8564 32.2171 57.8564 31.4285C57.8564 30.64 57.2179 30 56.4279 30Z" fill="#7023F0"/>
<path d="M39.285 34.2856C38.495 34.2856 37.8564 34.9256 37.8564 35.7142V39.9999C37.8564 40.7885 38.495 41.4285 39.285 41.4285C40.075 41.4285 40.7136 40.7885 40.7136 39.9999V35.7142C40.7136 34.9256 40.075 34.2856 39.285 34.2856Z" fill="#7023F0"/>
</g>
<defs>
<clipPath id="clip0">
<rect width="80" height="80" fill="white"/>
</clipPath>
</defs>
</svg>
